<svg width="20" height="20" viewBox="0 0 20 20" xmlns="http://www.w3.org/2000/svg"><path d="M10 6.364A3.635 3.635 0 0 0 6.364 10 3.635 3.635 0 0 0 10 13.636 3.635 3.635 0 0 0 13.636 10 3.635 3.635 0 0 0 10 6.364zm8.127 2.727a8.177 8.177 0 0 0-7.218-7.218V0H9.091v1.873A8.177 8.177 0 0 0 1.873 9.09H0v1.818h1.873a8.177 8.177 0 0 0 7.218 7.218V20h1.818v-1.873a8.177 8.177 0 0 0 7.218-7.218H20V9.091h-1.873zM10 16.364A6.359 6.359 0 0 1 3.636 10 6.359 6.359 0 0 1 10 3.636 6.359 6.359 0 0 1 16.364 10 6.359 6.359 0 0 1 10 16.364z" fill="#727272" fill-rule="evenodd"/></svg>
